<svg width="326" height="127" viewBox="0 0 326 127" fill="none" xmlns="http://www.w3.org/2000/svg">
<path d="M244.464 35.2989C243.228 35.4805 248.04 34.9858 251.946 34.5724C253.119 34.4472 253.715 35.9064 252.796 36.6328C249.334 39.3758 244.673 44.1479 244.547 50.0723V54.8256C239.848 54.9321 237.946 55.2014 231.846 55.6335C225.747 56.0656 218.835 56.9549 211.1 58.3013L188.381 62.2593V43.7158L211.1 39.7579C225.366 37.353 246.468 34.9983 244.458 35.2989H244.464ZM214.815 23.6442L185.521 28.7482V10.211L214.815 5.10701C224.218 3.76055 242.486 1.6438 248.516 1.16785C249.416 1.09896 254.508 0.497752 258.591 0.00927062C259.815 -0.134769 260.405 1.43714 259.384 2.11976C254.831 5.16337 248.465 10.3237 248.249 15.4716V20.3814C243.044 20.4315 241.655 20.563 235.556 21.039C229.456 21.5087 222.544 22.3792 214.809 23.6505L214.815 23.6442ZM250.031 70.1877C238.536 71.5467 229.855 72.4172 217.085 74.3836L183.251 80.2767V98.8139L217.085 92.9209C224.738 91.5869 231.612 90.7039 237.711 90.2718C243.811 89.8397 247.286 89.6894 249.987 89.5954V83.2828C250.101 78.2727 255.446 74.0267 259.701 71.4277C260.76 70.7827 260.202 69.1732 258.965 69.2922L250.038 70.1814L250.031 70.1877ZM92.7575 28.3349C88.0781 32.0611 80.7229 39.1065 78.6749 47.799V48.0746C77.4004 56.5666 74.6676 64.6766 70.4828 72.4109C66.2979 80.1515 61.9356 86.5769 57.3893 91.6997C52.8494 96.8224 48.8611 101.137 45.4308 104.644L58.1058 122.869L35.9896 126.72L1.55346 77.2143L23.5556 73.3816L31.4433 72.0039C32.61 71.8035 33.3075 73.2313 32.4261 74.0079C30.1435 76.037 27.9179 78.805 29.2431 81.1535L35.9832 90.8166C38.5322 88.8001 41.4616 85.6876 44.7714 81.4917C48.0812 77.2957 51.0106 72.555 53.5596 67.2631C56.1085 61.9775 57.7824 56.7106 58.5814 51.4501L0 61.6581V42.2942L91.8128 26.2996C93.0048 26.0929 93.7023 27.5834 92.7575 28.3349ZM324.058 20.0871L269.687 29.5561V48.0996L312.366 40.6659V40.4593C314.142 32.0173 320.628 25.6107 324.997 22.135C325.942 21.3834 325.257 19.8867 324.058 20.0934V20.0871ZM177.456 25.8675C178.363 25.0972 177.678 23.638 176.499 23.8446L133.807 31.2157C135.798 23.4626 140.737 18.0768 144.275 15.0645C145.182 14.2942 144.491 12.835 143.312 13.0354L115.755 17.8263V34.3595L94.9514 37.9855V56.5228L115.28 52.9844C115.121 62.1466 114.043 69.6742 112.052 75.5735C110.061 81.4729 107.487 86.4266 104.342 90.4409C101.191 94.4552 97.8237 97.718 94.2412 100.229V121.603C94.3173 121.591 96.2322 120.313 99.9795 117.771C103.727 115.228 108.451 110.826 114.145 104.557C119.845 98.2879 124.448 90.5787 127.955 81.4228C131.461 72.2731 133.255 61.7458 133.338 49.8406L152.106 46.5715C152.265 56.0719 152.182 63.7435 151.865 69.5802C151.548 75.4232 151.25 79.8446 150.965 82.8444C150.686 85.8441 150.128 87.9296 149.291 89.1007C148.454 90.2718 147.515 90.9857 146.482 91.2425C143.134 92.3009 140.148 92.758 137.516 92.6265C134.885 92.495 132.792 92.2069 131.239 91.7685C129.686 91.3302 128.868 91.1172 128.785 91.136V109.792C128.861 109.855 129.819 110.105 131.657 110.531C133.49 110.957 136.02 111.17 139.247 111.157C142.475 111.145 146.241 110.569 150.546 109.423C155.093 108.158 159.132 105.897 162.682 102.647C166.227 99.3901 168.364 92.4887 169.08 81.93C169.797 71.3713 170.114 58.4642 170.037 43.2085V39.1253C170.082 33.2823 174.178 28.648 177.462 25.8737L177.456 25.8675Z" fill="url(#paint0_linear_111_857)"/>
<defs>
<linearGradient id="paint0_linear_111_857" x1="4.04534" y1="86.7021" x2="324.597" y2="31.1727" gradientUnits="userSpaceOnUse">
<stop stop-color="#313EDD"/>
<stop offset="1" stop-color="#2BAAD6"/>
</linearGradient>
</defs>
</svg>
