<?xml version="1.0" encoding="UTF-8"?><svg id="b" xmlns="http://www.w3.org/2000/svg" xmlns:xlink="http://www.w3.org/1999/xlink" viewBox="0 0 29 32"><defs><clipPath id="e"><path d="m28.37,1.13c-1.41,1.15-3.62,3.32-4.23,6v.08c-.38,2.62-1.2,5.12-2.46,7.5-1.26,2.38-2.57,4.37-3.94,5.94-1.37,1.58-2.56,2.91-3.59,3.99l3.81,5.62-6.65,1.19L.96,16.2l6.61-1.18h0s2.37-.42,2.37-.42c.35-.06.56.38.3.62-.69.62-1.36,1.48-.96,2.2l2.03,2.98c.77-.62,1.65-1.58,2.64-2.87.99-1.29,1.87-2.75,2.64-4.38.77-1.63,1.27-3.25,1.51-4.87L.49,11.4v-5.97L28.09.51c.36-.06.57.4.28.63Z" style="fill:none; stroke-width:0px;"/></clipPath></defs><g id="c"><g id="d"><path d="m11.08,32L.12,15.84l9.74-1.74c.38-.07.74.12.91.47.17.35.09.76-.2,1.01-.35.32-1.12,1.1-.86,1.59l1.69,2.48c.64-.59,1.36-1.41,2.16-2.44.97-1.26,1.84-2.7,2.59-4.29.63-1.35,1.08-2.7,1.35-4.04L0,12v-6.98L28,.01c.39-.07.75.13.92.49.16.36.07.77-.24,1.02h0c-1.25,1.03-3.44,3.12-4.05,5.67v.09c-.4,2.66-1.24,5.24-2.52,7.66-1.27,2.41-2.61,4.44-4,6.04-1.24,1.44-2.36,2.69-3.33,3.71l4.02,5.92-7.72,1.38ZM1.8,16.55l9.74,14.35,5.58-1-3.6-5.31.28-.29c1.02-1.07,2.22-2.41,3.58-3.97,1.33-1.54,2.64-3.51,3.87-5.85,1.22-2.32,2.04-4.79,2.41-7.34v-.12c.61-2.59,2.62-4.72,4-5.93L.99,5.85v4.95l17.71-3.16-.1.69c-.25,1.66-.77,3.35-1.55,5.01-.78,1.65-1.69,3.16-2.7,4.48-1.01,1.32-1.93,2.31-2.72,2.96l-.41.34-2.33-3.42c-.31-.55-.39-1.39.7-2.53l-7.77,1.39ZM28.06.75h0s0,0,0,0h0Z" style="fill:#fff; stroke-width:0px;"/><g style="clip-path:url(#e);"><polygon points=".49 12.98 3.61 31.45 .49 31.45 .49 12.98" style="fill:#313edd; stroke-width:0px;"/><polygon points=".49 11.35 3.89 31.45 3.61 31.45 .49 12.98 .49 11.35" style="fill:#313edd; stroke-width:0px;"/><polygon points=".49 9.73 4.16 31.45 3.89 31.45 .49 11.35 .49 9.73" style="fill:#313fdd; stroke-width:0px;"/><polygon points=".49 8.1 4.44 31.45 4.16 31.45 .49 9.73 .49 8.1" style="fill:#3140dd; stroke-width:0px;"/><polygon points=".49 6.47 4.71 31.45 4.44 31.45 .49 8.1 .49 6.47" style="fill:#3141dd; stroke-width:0px;"/><polygon points=".49 4.85 4.99 31.45 4.71 31.45 .49 6.47 .49 4.85" style="fill:#3142dd; stroke-width:0px;"/><polygon points=".49 3.26 .5 3.26 5.26 31.45 4.99 31.45 .49 4.85 .49 3.26" style="fill:#3143dd; stroke-width:0px;"/><polygon points=".5 3.26 .77 3.21 5.54 31.45 5.26 31.45 .5 3.26" style="fill:#3144dd; stroke-width:0px;"/><polygon points=".77 3.21 1.03 3.16 5.81 31.45 5.54 31.45 .77 3.21" style="fill:#3145dd; stroke-width:0px;"/><polygon points="1.03 3.16 1.3 3.12 6.09 31.45 5.81 31.45 1.03 3.16" style="fill:#3146dc; stroke-width:0px;"/><polygon points="1.3 3.12 1.57 3.07 6.36 31.45 6.09 31.45 1.3 3.12" style="fill:#3047dc; stroke-width:0px;"/><polygon points="1.57 3.07 1.83 3.03 6.64 31.45 6.36 31.45 1.57 3.07" style="fill:#3048dc; stroke-width:0px;"/><polygon points="1.83 3.03 2.1 2.98 6.91 31.45 6.64 31.45 1.83 3.03" style="fill:#3049dc; stroke-width:0px;"/><polygon points="2.1 2.98 2.37 2.93 7.19 31.45 6.91 31.45 2.1 2.98" style="fill:#304adc; stroke-width:0px;"/><polygon points="2.37 2.93 2.64 2.89 7.46 31.45 7.19 31.45 2.37 2.93" style="fill:#304bdc; stroke-width:0px;"/><polygon points="2.64 2.89 2.9 2.84 7.74 31.45 7.46 31.45 2.64 2.89" style="fill:#304cdc; stroke-width:0px;"/><polygon points="2.9 2.84 3.17 2.79 8.01 31.45 7.74 31.45 2.9 2.84" style="fill:#304ddc; stroke-width:0px;"/><polygon points="3.17 2.79 3.44 2.75 8.29 31.45 8.01 31.45 3.17 2.79" style="fill:#304edc; stroke-width:0px;"/><polygon points="3.44 2.75 3.7 2.7 8.56 31.45 8.29 31.45 3.44 2.75" style="fill:#304fdc; stroke-width:0px;"/><polygon points="3.7 2.7 3.97 2.66 8.84 31.45 8.56 31.45 3.7 2.7" style="fill:#3050dc; stroke-width:0px;"/><polygon points="3.97 2.66 4.24 2.61 9.11 31.45 8.84 31.45 3.97 2.66" style="fill:#3051dc; stroke-width:0px;"/><polygon points="4.24 2.61 4.51 2.56 9.39 31.45 9.11 31.45 4.24 2.61" style="fill:#3052dc; stroke-width:0px;"/><polygon points="4.51 2.56 4.77 2.52 9.66 31.45 9.39 31.45 4.51 2.56" style="fill:#3053dc; stroke-width:0px;"/><polygon points="4.77 2.52 5.04 2.47 9.94 31.45 9.66 31.45 4.77 2.52" style="fill:#3054dc; stroke-width:0px;"/><polygon points="5.04 2.47 5.31 2.42 10.21 31.45 9.94 31.45 5.04 2.47" style="fill:#3055db; stroke-width:0px;"/><polygon points="5.31 2.42 5.57 2.38 10.49 31.45 10.21 31.45 5.31 2.42" style="fill:#3056db; stroke-width:0px;"/><polygon points="5.57 2.38 5.84 2.33 10.76 31.45 10.49 31.45 5.57 2.38" style="fill:#3057db; stroke-width:0px;"/><polygon points="5.84 2.33 6.11 2.29 11.04 31.45 10.76 31.45 5.84 2.33" style="fill:#3058db; stroke-width:0px;"/><polygon points="6.11 2.29 6.37 2.24 11.31 31.45 11.04 31.45 6.11 2.29" style="fill:#2f59db; stroke-width:0px;"/><polygon points="6.37 2.24 6.64 2.19 11.59 31.45 11.31 31.45 6.37 2.24" style="fill:#2f5adb; stroke-width:0px;"/><polygon points="6.64 2.19 6.91 2.15 11.86 31.45 11.59 31.45 6.64 2.19" style="fill:#2f5bdb; stroke-width:0px;"/><polygon points="6.91 2.15 7.18 2.1 12.14 31.45 11.86 31.45 6.91 2.15" style="fill:#2f5cdb; stroke-width:0px;"/><polygon points="7.18 2.1 7.44 2.05 12.41 31.45 12.14 31.45 7.18 2.1" style="fill:#2f5ddb; stroke-width:0px;"/><polygon points="7.44 2.05 7.71 2.01 12.68 31.45 12.41 31.45 7.44 2.05" style="fill:#2f5edb; stroke-width:0px;"/><polygon points="7.71 2.01 7.98 1.96 12.96 31.45 12.68 31.45 7.71 2.01" style="fill:#2f5fdb; stroke-width:0px;"/><polygon points="7.98 1.96 8.24 1.92 13.23 31.45 12.96 31.45 7.98 1.96" style="fill:#2f60db; stroke-width:0px;"/><polygon points="8.24 1.92 8.51 1.87 13.51 31.45 13.23 31.45 8.24 1.92" style="fill:#2f61db; stroke-width:0px;"/><polygon points="8.51 1.87 8.78 1.82 13.78 31.45 13.51 31.45 8.51 1.87" style="fill:#2f62db; stroke-width:0px;"/><polygon points="8.78 1.82 9.04 1.78 14.06 31.45 13.78 31.45 8.78 1.82" style="fill:#2f63db; stroke-width:0px;"/><polygon points="9.04 1.78 9.31 1.73 14.33 31.45 14.06 31.45 9.04 1.78" style="fill:#2f64db; stroke-width:0px;"/><polygon points="9.31 1.73 9.58 1.68 14.61 31.45 14.33 31.45 9.31 1.73" style="fill:#2f65da; stroke-width:0px;"/><polygon points="9.58 1.68 9.85 1.64 14.88 31.45 14.61 31.45 9.58 1.68" style="fill:#2f66da; stroke-width:0px;"/><polygon points="9.85 1.64 10.11 1.59 15.16 31.45 14.88 31.45 9.85 1.64" style="fill:#2f67da; stroke-width:0px;"/><polygon points="10.11 1.59 10.38 1.55 15.43 31.45 15.16 31.45 10.11 1.59" style="fill:#2f68da; stroke-width:0px;"/><polygon points="10.38 1.55 10.65 1.5 15.71 31.45 15.43 31.45 10.38 1.55" style="fill:#2f69da; stroke-width:0px;"/><polygon points="10.65 1.5 10.91 1.45 15.98 31.45 15.71 31.45 10.65 1.5" style="fill:#2f6ada; stroke-width:0px;"/><polygon points="10.91 1.45 11.18 1.41 16.26 31.45 15.98 31.45 10.91 1.45" style="fill:#2e6bda; stroke-width:0px;"/><polygon points="11.18 1.41 11.45 1.36 16.53 31.45 16.26 31.45 11.18 1.41" style="fill:#2e6cda; stroke-width:0px;"/><polygon points="11.45 1.36 11.72 1.31 16.81 31.45 16.53 31.45 11.45 1.36" style="fill:#2e6dda; stroke-width:0px;"/><polygon points="11.72 1.31 11.98 1.27 17.08 31.45 16.81 31.45 11.72 1.31" style="fill:#2e6eda; stroke-width:0px;"/><polygon points="11.98 1.27 12.25 1.22 17.36 31.45 17.08 31.45 11.98 1.27" style="fill:#2e6fda; stroke-width:0px;"/><polygon points="12.25 1.22 12.52 1.18 17.63 31.45 17.36 31.45 12.25 1.22" style="fill:#2e70da; stroke-width:0px;"/><polygon points="12.52 1.18 12.78 1.13 17.91 31.45 17.63 31.45 12.52 1.18" style="fill:#2e71da; stroke-width:0px;"/><polygon points="12.78 1.13 13.05 1.08 18.18 31.45 17.91 31.45 12.78 1.13" style="fill:#2e72da; stroke-width:0px;"/><polygon points="13.05 1.08 13.32 1.04 18.46 31.45 18.18 31.45 13.05 1.08" style="fill:#2e73da; stroke-width:0px;"/><polygon points="13.32 1.04 13.58 .99 18.73 31.45 18.46 31.45 13.32 1.04" style="fill:#2e75d9; stroke-width:0px;"/><polygon points="13.58 .99 13.85 .94 19.01 31.45 18.73 31.45 13.58 .99" style="fill:#2e76d9; stroke-width:0px;"/><polygon points="13.85 .94 14.12 .9 19.28 31.45 19.01 31.45 13.85 .94" style="fill:#2e77d9; stroke-width:0px;"/><polygon points="14.12 .9 14.39 .85 19.56 31.45 19.28 31.45 14.12 .9" style="fill:#2e78d9; stroke-width:0px;"/><polygon points="14.39 .85 14.65 .8 19.83 31.45 19.56 31.45 14.39 .85" style="fill:#2e79d9; stroke-width:0px;"/><polygon points="14.65 .8 14.92 .76 20.11 31.45 19.83 31.45 14.65 .8" style="fill:#2e7ad9; stroke-width:0px;"/><polygon points="14.92 .76 15.19 .71 20.38 31.45 20.11 31.45 14.92 .76" style="fill:#2e7bd9; stroke-width:0px;"/><polygon points="15.19 .71 15.45 .67 20.66 31.45 20.38 31.45 15.19 .71" style="fill:#2e7cd9; stroke-width:0px;"/><polygon points="15.45 .67 15.72 .62 20.93 31.45 20.66 31.45 15.45 .67" style="fill:#2e7dd9; stroke-width:0px;"/><polygon points="15.72 .62 15.99 .57 21.21 31.45 20.93 31.45 15.72 .62" style="fill:#2d7ed9; stroke-width:0px;"/><polygon points="15.99 .57 16.25 .53 21.48 31.45 21.21 31.45 15.99 .57" style="fill:#2d7fd9; stroke-width:0px;"/><polygon points="16.25 .53 16.52 .48 21.75 31.45 21.48 31.45 16.25 .53" style="fill:#2d80d9; stroke-width:0px;"/><polygon points="16.52 .48 16.75 .44 16.79 .44 22.03 31.45 21.75 31.45 16.52 .48" style="fill:#2d81d9; stroke-width:0px;"/><polygon points="17.06 .44 22.3 31.45 22.03 31.45 16.79 .44 17.06 .44" style="fill:#2d82d9; stroke-width:0px;"/><polygon points="17.34 .44 22.58 31.45 22.3 31.45 17.06 .44 17.34 .44" style="fill:#2d83d9; stroke-width:0px;"/><polygon points="17.61 .44 22.85 31.45 22.58 31.45 17.34 .44 17.61 .44" style="fill:#2d84d8; stroke-width:0px;"/><polygon points="17.89 .44 23.13 31.43 23.01 31.45 22.85 31.45 17.61 .44 17.89 .44" style="fill:#2d85d8; stroke-width:0px;"/><polygon points="18.16 .44 23.39 31.39 23.13 31.43 17.89 .44 18.16 .44" style="fill:#2d86d8; stroke-width:0px;"/><polygon points="18.44 .44 23.66 31.34 23.39 31.39 18.16 .44 18.44 .44" style="fill:#2d87d8; stroke-width:0px;"/><polygon points="18.71 .44 23.93 31.29 23.66 31.34 18.44 .44 18.71 .44" style="fill:#2d88d8; stroke-width:0px;"/><polygon points="18.99 .44 24.19 31.25 23.93 31.29 18.71 .44 18.99 .44" style="fill:#2d89d8; stroke-width:0px;"/><polygon points="19.26 .44 24.46 31.2 24.19 31.25 18.99 .44 19.26 .44" style="fill:#2d8ad8; stroke-width:0px;"/><polygon points="19.54 .44 24.73 31.15 24.46 31.2 19.26 .44 19.54 .44" style="fill:#2d8bd8; stroke-width:0px;"/><polygon points="19.81 .44 25 31.11 24.73 31.15 19.54 .44 19.81 .44" style="fill:#2d8cd8; stroke-width:0px;"/><polygon points="20.09 .44 25.26 31.06 25 31.11 19.81 .44 20.09 .44" style="fill:#2d8dd8; stroke-width:0px;"/><polygon points="20.36 .44 25.53 31.02 25.26 31.06 20.09 .44 20.36 .44" style="fill:#2d8ed8; stroke-width:0px;"/><polygon points="20.64 .44 25.8 30.97 25.53 31.02 20.36 .44 20.64 .44" style="fill:#2d8fd8; stroke-width:0px;"/><polygon points="20.91 .44 26.06 30.92 25.8 30.97 20.64 .44 20.91 .44" style="fill:#2c90d8; stroke-width:0px;"/><polygon points="21.19 .44 26.33 30.88 26.06 30.92 20.91 .44 21.19 .44" style="fill:#2c91d8; stroke-width:0px;"/><polygon points="21.46 .44 26.6 30.83 26.33 30.88 21.19 .44 21.46 .44" style="fill:#2c92d8; stroke-width:0px;"/><polygon points="21.74 .44 26.86 30.78 26.6 30.83 21.46 .44 21.74 .44" style="fill:#2c93d8; stroke-width:0px;"/><polygon points="22.01 .44 27.13 30.74 26.86 30.78 21.74 .44 22.01 .44" style="fill:#2c94d7; stroke-width:0px;"/><polygon points="22.29 .44 27.4 30.69 27.13 30.74 22.01 .44 22.29 .44" style="fill:#2c95d7; stroke-width:0px;"/><polygon points="22.56 .44 27.67 30.65 27.4 30.69 22.29 .44 22.56 .44" style="fill:#2c96d7; stroke-width:0px;"/><polygon points="22.84 .44 27.93 30.6 27.67 30.65 22.56 .44 22.84 .44" style="fill:#2c97d7; stroke-width:0px;"/><polygon points="23.11 .44 28.2 30.55 27.93 30.6 22.84 .44 23.11 .44" style="fill:#2c98d7; stroke-width:0px;"/><polygon points="23.39 .44 28.47 30.51 28.2 30.55 23.11 .44 23.39 .44" style="fill:#2c99d7; stroke-width:0px;"/><polygon points="23.66 .44 28.66 30.01 28.66 30.47 28.47 30.51 23.39 .44 23.66 .44" style="fill:#2c9ad7; stroke-width:0px;"/><polygon points="23.94 .44 28.66 28.38 28.66 30.01 23.66 .44 23.94 .44" style="fill:#2c9bd7; stroke-width:0px;"/><polygon points="24.21 .44 28.66 26.76 28.66 28.38 23.94 .44 24.21 .44" style="fill:#2c9cd7; stroke-width:0px;"/><polygon points="24.49 .44 28.66 25.13 28.66 26.76 24.21 .44 24.49 .44" style="fill:#2c9dd7; stroke-width:0px;"/><polygon points="24.76 .44 28.66 23.5 28.66 25.13 24.49 .44 24.76 .44" style="fill:#2c9ed7; stroke-width:0px;"/><polygon points="25.04 .44 28.66 21.88 28.66 23.5 24.76 .44 25.04 .44" style="fill:#2c9fd7; stroke-width:0px;"/><polygon points="25.31 .44 28.66 20.25 28.66 21.88 25.04 .44 25.31 .44" style="fill:#2ca0d7; stroke-width:0px;"/><polygon points="25.59 .44 28.66 18.62 28.66 20.25 25.31 .44 25.59 .44" style="fill:#2ca1d7; stroke-width:0px;"/><polygon points="25.86 .44 28.66 17 28.66 18.62 25.59 .44 25.86 .44" style="fill:#2ba2d7; stroke-width:0px;"/><polygon points="26.14 .44 28.66 15.37 28.66 17 25.86 .44 26.14 .44" style="fill:#2ba3d6; stroke-width:0px;"/><polygon points="26.41 .44 28.66 13.74 28.66 15.37 26.14 .44 26.41 .44" style="fill:#2ba4d6; stroke-width:0px;"/><polygon points="26.68 .44 28.66 12.11 28.66 13.74 26.41 .44 26.68 .44" style="fill:#2ba5d6; stroke-width:0px;"/><polygon points="26.96 .44 28.66 10.49 28.66 12.11 26.68 .44 26.96 .44" style="fill:#2ba6d6; stroke-width:0px;"/><polygon points="27.23 .44 28.66 8.86 28.66 10.49 26.96 .44 27.23 .44" style="fill:#2ba7d6; stroke-width:0px;"/><polygon points="27.51 .44 28.66 7.23 28.66 8.86 27.23 .44 27.51 .44" style="fill:#2ba8d6; stroke-width:0px;"/><polygon points="27.78 .44 28.66 5.61 28.66 7.23 27.51 .44 27.78 .44" style="fill:#2ba9d6; stroke-width:0px;"/><polygon points="28.06 .44 28.66 3.98 28.66 5.61 27.78 .44 28.06 .44" style="fill:#2baad6; stroke-width:0px;"/><polygon points="28.66 3.98 28.06 .44 28.66 .44 28.66 3.98" style="fill:#2baad6; stroke-width:0px;"/></g></g></g></svg>