<?xml version="1.0" standalone="no"?>
<!DOCTYPE svg PUBLIC "-//W3C//DTD SVG 20010904//EN"
 "http://www.w3.org/TR/2001/REC-SVG-20010904/DTD/svg10.dtd">
<svg version="1.0" xmlns="http://www.w3.org/2000/svg"
 width="1024.000000pt" height="1024.000000pt" viewBox="0 0 1024.000000 1024.000000"
 preserveAspectRatio="xMidYMid meet">
<metadata>
Created by potrace 1.14, written by Peter Selinger 2001-2017
</metadata>
<g transform="translate(0.000000,1024.000000) scale(0.100000,-0.100000)"
fill="#000000" stroke="none">
<path d="M9390 10229 c-19 -4 -55 -11 -79 -14 -25 -3 -47 -8 -51 -10 -3 -2
-26 -6 -50 -10 -37 -5 -143 -24 -335 -59 -16 -4 -93 -17 -170 -31 -123 -21
-240 -42 -340 -60 -68 -13 -201 -37 -220 -41 -10 -2 -37 -6 -60 -10 -22 -3
-49 -7 -60 -9 -11 -2 -37 -6 -59 -9 -21 -4 -41 -8 -45 -10 -3 -3 -27 -7 -51
-11 -25 -4 -67 -11 -95 -16 -27 -6 -59 -12 -70 -14 -11 -2 -38 -6 -60 -10 -22
-4 -49 -8 -60 -10 -30 -4 -91 -15 -180 -32 -44 -9 -91 -17 -105 -18 -14 -2
-25 -4 -25 -5 0 -2 -14 -4 -85 -16 -25 -4 -52 -9 -60 -10 -8 -2 -31 -5 -50 -8
-19 -3 -46 -8 -60 -11 -14 -3 -52 -10 -85 -15 -33 -6 -80 -15 -105 -21 -25 -5
-61 -12 -80 -14 -19 -3 -57 -9 -85 -14 -48 -9 -79 -14 -155 -28 -60 -10 -74
-12 -125 -23 -27 -5 -62 -12 -78 -14 -15 -3 -55 -10 -90 -16 -34 -7 -71 -13
-82 -15 -11 -1 -31 -5 -45 -9 -14 -3 -41 -8 -60 -11 -19 -2 -48 -7 -65 -10
-59 -11 -141 -25 -177 -29 -20 -3 -54 -9 -75 -15 -21 -5 -58 -13 -83 -16 -25
-3 -52 -8 -61 -11 -9 -2 -32 -7 -50 -9 -19 -3 -45 -7 -59 -10 -14 -3 -41 -8
-60 -11 -19 -2 -46 -6 -60 -9 -35 -7 -66 -13 -130 -25 -30 -6 -66 -12 -80 -15
-13 -3 -40 -7 -60 -10 -39 -6 -61 -10 -100 -19 -14 -3 -41 -8 -60 -10 -19 -3
-109 -19 -199 -36 -91 -16 -167 -28 -169 -25 -3 2 -12 0 -21 -4 -9 -5 -34 -12
-56 -15 -22 -4 -53 -9 -70 -12 -16 -3 -39 -7 -50 -9 -11 -1 -74 -12 -140 -25
-66 -12 -131 -24 -145 -26 -14 -3 -61 -11 -105 -19 -44 -7 -93 -16 -110 -19
-16 -3 -39 -7 -50 -9 -11 -3 -40 -8 -65 -12 -25 -4 -54 -9 -65 -11 -11 -3 -35
-7 -54 -10 -18 -3 -43 -8 -55 -10 -11 -2 -34 -7 -51 -9 -16 -3 -57 -11 -90
-17 -33 -6 -67 -12 -75 -13 -13 -1 -80 -13 -120 -20 -8 -2 -53 -10 -100 -19
-123 -22 -141 -25 -180 -32 -52 -8 -74 -12 -80 -14 -6 -3 -10 -3 -80 -14 -55
-8 -71 -11 -112 -21 -13 -4 -39 -8 -58 -11 -19 -2 -48 -7 -65 -11 -16 -3 -39
-7 -50 -9 -11 -2 -36 -6 -55 -9 -19 -4 -42 -8 -50 -9 -8 -1 -28 -6 -45 -9 -16
-4 -46 -9 -65 -12 -19 -3 -57 -10 -85 -15 -27 -5 -66 -12 -85 -14 -19 -3 -46
-8 -60 -11 -13 -2 -40 -7 -60 -10 -46 -7 -77 -13 -98 -19 -9 -3 -35 -7 -57
-11 -22 -3 -56 -8 -75 -12 -19 -3 -44 -8 -55 -9 -11 -1 -22 -3 -25 -4 -6 -3
-10 -4 -75 -14 -27 -5 -59 -10 -70 -13 -11 -2 -42 -8 -70 -13 -27 -5 -99 -18
-160 -29 -60 -11 -111 -18 -114 -16 -2 3 -9 1 -15 -4 -6 -5 -31 -11 -56 -15
-68 -9 -110 -16 -160 -26 -25 -5 -58 -11 -75 -14 -33 -5 -184 -33 -225 -41
-14 -3 -43 -8 -65 -11 -22 -3 -51 -8 -65 -10 -14 -3 -31 -6 -37 -6 -10 -1 -13
-232 -13 -1120 l0 -1118 32 4 c18 3 33 5 33 6 0 2 23 7 75 15 25 4 54 9 65 11
55 9 82 13 102 18 11 2 43 8 70 12 26 5 50 9 53 9 21 6 79 17 100 19 14 2 36
6 50 9 14 4 42 9 63 12 20 3 54 8 75 11 20 4 43 7 50 7 6 0 12 3 12 7 0 4 8 7
18 7 14 -1 112 13 132 18 8 2 104 18 125 21 11 1 22 3 25 5 3 1 10 3 15 4 6 1
26 5 45 8 19 4 49 9 65 11 17 2 30 5 30 6 0 1 11 3 25 4 14 2 39 6 55 9 17 4
46 9 65 12 19 4 80 15 135 25 55 11 116 22 135 24 19 3 44 7 55 9 11 3 40 8
65 12 25 4 54 9 65 11 11 3 36 7 55 10 19 3 42 7 50 9 8 3 33 7 55 11 22 3 60
10 85 15 25 5 61 11 80 14 19 2 46 7 60 10 14 3 39 8 55 10 64 10 96 15 138
25 25 5 59 12 78 14 19 3 81 14 139 24 58 11 121 23 140 26 44 7 81 14 145 26
28 5 66 12 85 14 19 3 47 8 63 11 15 3 39 7 55 10 15 3 68 12 117 21 97 17
117 21 125 24 3 1 8 2 12 1 6 0 61 9 138 24 14 3 78 14 144 26 142 25 151 27
151 29 0 1 16 3 36 5 20 1 47 6 60 10 13 5 35 9 49 11 14 1 41 5 60 8 19 4 60
11 90 16 30 6 66 12 80 15 53 10 146 27 170 30 14 2 25 4 25 5 0 1 14 3 30 6
32 4 67 11 75 14 3 1 8 2 12 1 4 0 42 6 85 14 43 8 92 17 108 20 17 2 41 7 55
10 14 3 43 8 65 11 22 3 58 10 80 15 22 6 54 12 70 14 49 6 95 13 126 20 17 4
40 8 52 10 12 1 65 11 117 20 52 10 109 20 125 22 17 1 72 11 123 21 85 17
112 16 98 -6 -5 -8 -7 -18 -22 -89 -3 -16 -10 -46 -15 -68 -6 -22 -12 -47 -13
-55 -2 -8 -5 -22 -8 -30 -3 -8 -20 -69 -38 -135 -19 -66 -58 -190 -87 -275
-30 -85 -55 -159 -57 -165 -2 -5 -7 -19 -11 -30 -5 -11 -17 -42 -28 -70 -10
-27 -24 -61 -30 -75 -6 -14 -11 -27 -12 -30 -14 -41 -97 -224 -106 -234 -5 -6
-9 -18 -9 -28 0 -10 -4 -18 -10 -18 -5 0 -9 -3 -8 -7 5 -19 -266 -534 -284
-541 -5 -2 -6 -8 -2 -13 3 -5 0 -9 -5 -9 -6 0 -11 -4 -11 -9 0 -5 -24 -48 -52
-96 -29 -48 -60 -98 -68 -113 -8 -14 -18 -31 -23 -37 -4 -5 -51 -75 -103 -155
-83 -124 -285 -405 -304 -420 -3 -3 -21 -25 -40 -50 -19 -25 -43 -54 -52 -65
-9 -11 -45 -54 -79 -95 -34 -41 -65 -77 -68 -80 -4 -3 -17 -18 -30 -35 -70
-92 -358 -388 -372 -383 -11 4 -179 247 -179 258 0 4 -4 10 -8 12 -4 2 -48 64
-98 138 -49 74 -92 137 -95 140 -16 14 -157 229 -168 257 -8 19 -11 49 -7 75
7 49 72 187 93 195 7 3 13 11 13 18 0 7 50 64 110 126 61 62 110 116 110 121
0 4 4 8 9 8 8 0 28 42 38 80 12 47 4 132 -16 174 -60 128 -178 187 -321 161
-14 -2 -74 -14 -135 -25 -60 -11 -125 -23 -144 -26 -18 -3 -43 -8 -55 -10 -26
-5 -72 -13 -111 -20 -40 -6 -134 -23 -165 -29 -24 -5 -99 -18 -165 -30 -30 -5
-57 -10 -105 -20 -14 -3 -41 -7 -60 -9 -19 -3 -71 -12 -115 -20 -44 -8 -93
-18 -110 -21 -16 -2 -56 -10 -88 -15 -32 -6 -70 -13 -85 -15 -15 -2 -38 -6
-52 -9 -28 -6 -67 -13 -120 -22 -19 -3 -42 -7 -49 -10 -8 -3 -35 -7 -60 -10
-26 -3 -53 -7 -61 -9 -13 -4 -124 -24 -225 -41 -16 -2 -38 -7 -47 -10 -9 -3
-32 -7 -50 -9 -18 -2 -44 -6 -58 -10 -14 -3 -41 -7 -60 -10 -20 -3 -60 -10
-90 -15 -30 -6 -68 -13 -85 -15 -16 -3 -50 -9 -75 -14 -42 -10 -67 -14 -145
-26 -16 -3 -41 -7 -55 -10 -14 -3 -38 -8 -55 -10 -16 -3 -68 -12 -115 -21 -47
-9 -96 -18 -110 -20 -14 -2 -37 -7 -52 -10 -31 -6 -83 -14 -118 -19 -14 -1
-35 -7 -47 -11 -22 -9 -21 -12 43 -104 36 -52 71 -104 79 -115 8 -11 37 -54
64 -95 28 -41 54 -80 58 -85 4 -6 30 -44 58 -85 27 -41 53 -79 57 -85 29 -38
100 -144 107 -160 5 -11 19 -30 30 -42 12 -12 21 -25 21 -27 0 -3 24 -41 53
-83 80 -116 213 -312 375 -553 80 -118 153 -224 163 -236 11 -11 19 -25 19
-30 0 -5 13 -25 30 -44 16 -19 29 -40 30 -46 0 -5 8 -19 18 -30 9 -11 49 -67
87 -124 197 -292 241 -356 252 -368 7 -7 13 -17 13 -22 0 -5 6 -15 13 -22 11
-12 55 -77 82 -119 5 -10 51 -77 102 -151 50 -74 111 -163 135 -199 23 -35 46
-65 51 -67 4 -2 7 -8 7 -13 0 -5 22 -40 50 -79 27 -39 50 -75 50 -80 0 -6 7
-13 15 -16 8 -4 15 -10 15 -14 0 -5 41 -68 91 -142 157 -230 324 -478 334
-496 6 -9 13 -19 16 -22 3 -3 39 -54 79 -115 40 -60 77 -111 82 -113 4 -2 8
-9 8 -16 0 -7 8 -21 18 -32 9 -10 37 -50 62 -89 25 -38 48 -71 52 -73 5 -2 8
-8 8 -14 0 -5 6 -16 13 -23 16 -19 30 -37 42 -58 16 -26 342 -510 360 -532 8
-11 25 -36 38 -55 78 -119 193 -286 200 -291 5 -3 30 -2 55 3 78 14 106 19
137 24 17 2 37 6 45 7 52 12 98 21 120 23 14 1 25 3 25 4 0 2 57 13 142 25 12
2 34 6 50 9 41 9 73 15 113 21 20 3 47 8 60 10 14 3 39 7 55 10 17 3 41 8 55
10 36 8 59 12 110 20 25 4 54 9 65 12 24 5 46 9 100 17 22 4 51 9 63 12 13 3
42 7 64 10 47 7 73 12 73 14 0 1 9 3 20 4 37 5 99 16 150 26 28 5 63 12 79 14
16 3 52 10 80 15 28 6 65 12 81 15 17 2 41 7 55 10 14 3 41 8 60 10 19 3 35 5
35 6 0 1 11 3 25 5 28 4 131 22 170 30 14 3 40 8 59 11 18 3 43 8 55 10 11 2
37 7 56 10 19 3 49 8 65 11 17 3 39 7 50 8 11 2 21 4 23 5 1 2 10 3 20 4 32 3
65 18 54 25 -10 6 -28 33 -192 276 -41 61 -78 112 -82 113 -4 2 -8 8 -8 12 0
8 -59 99 -87 135 -5 6 -41 60 -82 120 -41 61 -117 173 -170 250 -52 77 -105
156 -118 175 -12 19 -27 40 -32 46 -4 5 -14 21 -21 35 -7 13 -16 26 -20 29
-11 9 -180 261 -180 269 0 5 -7 11 -15 15 -8 3 -15 10 -15 16 0 5 -22 41 -50
80 -27 39 -50 74 -50 79 0 5 -3 11 -8 13 -4 2 -40 51 -80 110 l-73 108 74 77
c41 43 96 102 122 131 26 29 67 73 91 98 24 25 44 48 44 50 0 3 17 22 38 42
30 31 175 192 302 336 14 16 41 46 60 67 19 21 53 59 75 85 22 26 45 52 50 58
6 6 37 42 70 81 33 38 65 75 70 81 6 6 33 37 60 69 28 32 55 63 60 69 10 10
74 89 140 171 17 21 42 52 57 69 15 17 28 34 28 38 0 4 6 13 13 20 31 31 221
297 334 468 68 102 128 190 133 197 6 7 10 17 10 23 0 5 4 10 9 10 5 0 11 8
14 18 6 18 38 74 48 82 11 10 169 281 169 290 0 6 3 10 8 10 4 0 12 10 18 23
17 35 75 138 101 179 13 21 23 40 23 42 0 3 13 28 30 56 16 27 26 50 22 50 -4
0 -2 4 3 8 6 4 17 21 25 37 8 17 22 41 32 54 10 13 18 32 18 42 0 9 4 19 8 21
13 5 215 422 209 431 0 1 6 16 15 32 22 41 53 112 89 203 16 42 34 86 39 97 5
11 26 65 46 120 19 55 46 129 59 165 39 107 142 444 160 520 1 8 11 44 20 80
9 36 19 73 21 83 7 31 12 52 24 97 6 25 13 56 15 70 1 14 4 25 5 25 2 0 9 31
14 60 2 11 15 81 29 155 25 126 32 169 42 245 12 98 37 191 76 290 7 17 13 32
14 35 8 30 25 71 66 159 27 57 49 105 49 107 0 2 20 38 45 80 25 41 45 78 45
80 0 4 82 131 102 159 112 153 193 260 228 300 131 152 166 190 280 304 137
137 201 197 300 281 100 85 160 144 160 158 0 6 5 12 10 12 6 0 9 3 8 8 -1 4
4 23 10 43 17 50 9 139 -19 196 -59 122 -186 175 -339 142z"/>
</g>
</svg>
